<svg xmlns="http://www.w3.org/2000/svg" viewBox="0 0 696 276" width="696" height="276">
<g fill="#000">
<rect x="647" y="14" width="7" height="2"/><rect x="644" y="16" width="13" height="2"/><rect x="642" y="18" width="16" height="2"/><rect x="641" y="20" width="18" height="2"/><rect x="639" y="22" width="21" height="2"/><rect x="638" y="24" width="23" height="2"/><rect x="636" y="26" width="25" height="2"/><rect x="635" y="28" width="26" height="2"/><rect x="634" y="30" width="27" height="2"/><rect x="540" y="32" width="6" height="2"/><rect x="633" y="32" width="28" height="2"/><rect x="540" y="34" width="8" height="2"/><rect x="632" y="34" width="15" height="2"/><rect x="648" y="34" width="13" height="2"/><rect x="539" y="36" width="11" height="2"/><rect x="631" y="36" width="14" height="2"/><rect x="649" y="36" width="12" height="2"/><rect x="539" y="38" width="12" height="2"/><rect x="630" y="38" width="14" height="2"/><rect x="649" y="38" width="12" height="2"/><rect x="539" y="40" width="13" height="2"/><rect x="630" y="40" width="13" height="2"/><rect x="648" y="40" width="12" height="2"/><rect x="538" y="42" width="14" height="2"/><rect x="629" y="42" width="13" height="2"/><rect x="648" y="42" width="12" height="2"/><rect x="538" y="44" width="15" height="2"/><rect x="628" y="44" width="13" height="2"/><rect x="648" y="44" width="11" height="2"/><rect x="537" y="46" width="16" height="2"/><rect x="627" y="46" width="13" height="2"/><rect x="647" y="46" width="12" height="2"/><rect x="537" y="48" width="16" height="2"/><rect x="627" y="48" width="12" height="2"/><rect x="646" y="48" width="12" height="2"/><rect x="537" y="50" width="16" height="2"/><rect x="626" y="50" width="13" height="2"/><rect x="646" y="50" width="12" height="2"/><rect x="536" y="52" width="17" height="2"/><rect x="625" y="52" width="13" height="2"/><rect x="645" y="52" width="12" height="2"/><rect x="535" y="54" width="17" height="2"/><rect x="625" y="54" width="12" height="2"/><rect x="644" y="54" width="12" height="2"/><rect x="535" y="56" width="17" height="2"/><rect x="624" y="56" width="12" height="2"/><rect x="644" y="56" width="11" height="2"/><rect x="534" y="58" width="18" height="2"/><rect x="623" y="58" width="13" height="2"/><rect x="643" y="58" width="12" height="2"/><rect x="534" y="60" width="17" height="2"/><rect x="623" y="60" width="12" height="2"/><rect x="642" y="60" width="12" height="2"/><rect x="450" y="62" width="6" height="2"/><rect x="533" y="62" width="18" height="2"/><rect x="622" y="62" width="12" height="2"/><rect x="641" y="62" width="12" height="2"/><rect x="447" y="64" width="12" height="2"/><rect x="532" y="64" width="18" height="2"/><rect x="593" y="64" width="10" height="2"/><rect x="622" y="64" width="12" height="2"/><rect x="640" y="64" width="12" height="2"/><rect x="445" y="66" width="15" height="2"/><rect x="532" y="66" width="18" height="2"/><rect x="588" y="66" width="19" height="2"/><rect x="621" y="66" width="12" height="2"/><rect x="639" y="66" width="12" height="2"/><rect x="443" y="68" width="18" height="2"/><rect x="531" y="68" width="18" height="2"/><rect x="585" y="68" width="24" height="2"/><rect x="621" y="68" width="12" height="2"/><rect x="638" y="68" width="12" height="2"/><rect x="442" y="70" width="20" height="2"/><rect x="530" y="70" width="19" height="2"/><rect x="583" y="70" width="28" height="2"/><rect x="620" y="70" width="13" height="2"/><rect x="637" y="70" width="11" height="2"/><rect x="440" y="72" width="22" height="2"/><rect x="530" y="72" width="25" height="2"/><rect x="581" y="72" width="31" height="2"/><rect x="619" y="72" width="13" height="2"/><rect x="636" y="72" width="11" height="2"/><rect x="439" y="74" width="24" height="2"/><rect x="529" y="74" width="29" height="2"/><rect x="579" y="74" width="34" height="2"/><rect x="619" y="74" width="27" height="2"/><rect x="438" y="76" width="25" height="2"/><rect x="528" y="76" width="31" height="2"/><rect x="578" y="76" width="35" height="2"/><rect x="618" y="76" width="27" height="2"/><rect x="437" y="78" width="26" height="2"/><rect x="527" y="78" width="33" height="2"/><rect x="577" y="78" width="37" height="2"/><rect x="618" y="78" width="26" height="2"/><rect x="436" y="80" width="27" height="2"/><rect x="527" y="80" width="34" height="2"/><rect x="575" y="80" width="18" height="2"/><rect x="598" y="80" width="16" height="2"/><rect x="617" y="80" width="25" height="2"/><rect x="435" y="82" width="28" height="2"/><rect x="526" y="82" width="35" height="2"/><rect x="574" y="82" width="17" height="2"/><rect x="598" y="82" width="16" height="2"/><rect x="617" y="82" width="24" height="2"/><rect x="434" y="84" width="28" height="2"/><rect x="525" y="84" width="36" height="2"/><rect x="573" y="84" width="16" height="2"/><rect x="598" y="84" width="16" height="2"/><rect x="616" y="84" width="24" height="2"/><rect x="327" y="86" width="7" height="2"/><rect x="433" y="86" width="14" height="2"/><rect x="451" y="86" width="11" height="2"/><rect x="524" y="86" width="38" height="2"/><rect x="572" y="86" width="16" height="2"/><rect x="597" y="86" width="16" height="2"/><rect x="616" y="86" width="22" height="2"/><rect x="324" y="88" width="12" height="2"/><rect x="432" y="88" width="14" height="2"/><rect x="451" y="88" width="11" height="2"/><rect x="501" y="88" width="5" height="2"/><rect x="523" y="88" width="39" height="2"/><rect x="571" y="88" width="16" height="2"/><rect x="597" y="88" width="15" height="2"/><rect x="615" y="88" width="22" height="2"/><rect x="322" y="90" width="16" height="2"/><rect x="431" y="90" width="14" height="2"/><rect x="451" y="90" width="10" height="2"/><rect x="487" y="90" width="7" height="2"/><rect x="499" y="90" width="8" height="2"/><rect x="523" y="90" width="17" height="2"/><rect x="547" y="90" width="15" height="2"/><rect x="570" y="90" width="16" height="2"/><rect x="596" y="90" width="16" height="2"/><rect x="615" y="90" width="21" height="2"/><rect x="320" y="92" width="19" height="2"/><rect x="431" y="92" width="13" height="2"/><rect x="450" y="92" width="11" height="2"/><rect x="482" y="92" width="13" height="2"/><rect x="498" y="92" width="10" height="2"/><rect x="522" y="92" width="16" height="2"/><rect x="548" y="92" width="16" height="2"/><rect x="569" y="92" width="16" height="2"/><rect x="596" y="92" width="15" height="2"/><rect x="614" y="92" width="20" height="2"/><rect x="654" y="92" width="6" height="2"/><rect x="319" y="94" width="21" height="2"/><rect x="430" y="94" width="13" height="2"/><rect x="449" y="94" width="11" height="2"/><rect x="479" y="94" width="16" height="2"/><rect x="497" y="94" width="11" height="2"/><rect x="521" y="94" width="16" height="2"/><rect x="548" y="94" width="19" height="2"/><rect x="568" y="94" width="17" height="2"/><rect x="595" y="94" width="15" height="2"/><rect x="614" y="94" width="19" height="2"/><rect x="652" y="94" width="9" height="2"/><rect x="317" y="96" width="24" height="2"/><rect x="429" y="96" width="13" height="2"/><rect x="449" y="96" width="11" height="2"/><rect x="476" y="96" width="32" height="2"/><rect x="520" y="96" width="16" height="2"/><rect x="549" y="96" width="36" height="2"/><rect x="594" y="96" width="15" height="2"/><rect x="613" y="96" width="18" height="2"/><rect x="650" y="96" width="11" height="2"/><rect x="316" y="98" width="26" height="2"/><rect x="428" y="98" width="13" height="2"/><rect x="448" y="98" width="11" height="2"/><rect x="473" y="98" width="35" height="2"/><rect x="520" y="98" width="14" height="2"/><rect x="549" y="98" width="36" height="2"/><rect x="593" y="98" width="15" height="2"/><rect x="613" y="98" width="17" height="2"/><rect x="649" y="98" width="11" height="2"/><rect x="315" y="100" width="27" height="2"/><rect x="428" y="100" width="12" height="2"/><rect x="447" y="100" width="12" height="2"/><rect x="471" y="100" width="37" height="2"/><rect x="519" y="100" width="14" height="2"/><rect x="548" y="100" width="39" height="2"/><rect x="591" y="100" width="15" height="2"/><rect x="612" y="100" width="17" height="2"/><rect x="647" y="100" width="12" height="2"/><rect x="314" y="102" width="28" height="2"/><rect x="427" y="102" width="12" height="2"/><rect x="446" y="102" width="12" height="2"/><rect x="469" y="102" width="38" height="2"/><rect x="518" y="102" width="14" height="2"/><rect x="548" y="102" width="57" height="2"/><rect x="612" y="102" width="17" height="2"/><rect x="646" y="102" width="13" height="2"/><rect x="313" y="104" width="30" height="2"/><rect x="426" y="104" width="13" height="2"/><rect x="445" y="104" width="12" height="2"/><rect x="467" y="104" width="39" height="2"/><rect x="517" y="104" width="14" height="2"/><rect x="548" y="104" width="55" height="2"/><rect x="612" y="104" width="16" height="2"/><rect x="645" y="104" width="12" height="2"/><rect x="312" y="106" width="14" height="2"/><rect x="330" y="106" width="12" height="2"/><rect x="426" y="106" width="12" height="2"/><rect x="443" y="106" width="14" height="2"/><rect x="465" y="106" width="40" height="2"/><rect x="516" y="106" width="14" height="2"/><rect x="548" y="106" width="53" height="2"/><rect x="611" y="106" width="17" height="2"/><rect x="643" y="106" width="13" height="2"/><rect x="311" y="108" width="14" height="2"/><rect x="331" y="108" width="11" height="2"/><rect x="425" y="108" width="12" height="2"/><rect x="442" y="108" width="14" height="2"/><rect x="463" y="108" width="41" height="2"/><rect x="516" y="108" width="14" height="2"/><rect x="547" y="108" width="14" height="2"/><rect x="562" y="108" width="37" height="2"/><rect x="609" y="108" width="19" height="2"/><rect x="642" y="108" width="13" height="2"/><rect x="310" y="110" width="14" height="2"/><rect x="330" y="110" width="12" height="2"/><rect x="424" y="110" width="12" height="2"/><rect x="441" y="110" width="14" height="2"/><rect x="462" y="110" width="18" height="2"/><rect x="486" y="110" width="17" height="2"/><rect x="515" y="110" width="14" height="2"/><rect x="547" y="110" width="13" height="2"/><rect x="563" y="110" width="32" height="2"/><rect x="608" y="110" width="20" height="2"/><rect x="640" y="110" width="14" height="2"/><rect x="309" y="112" width="14" height="2"/><rect x="330" y="112" width="12" height="2"/><rect x="424" y="112" width="12" height="2"/><rect x="439" y="112" width="15" height="2"/><rect x="460" y="112" width="18" height="2"/><rect x="486" y="112" width="16" height="2"/><rect x="514" y="112" width="14" height="2"/><rect x="546" y="112" width="13" height="2"/><rect x="563" y="112" width="25" height="2"/><rect x="607" y="112" width="21" height="2"/><rect x="638" y="112" width="14" height="2"/><rect x="308" y="114" width="14" height="2"/><rect x="330" y="114" width="11" height="2"/><rect x="361" y="114" width="5" height="2"/><rect x="423" y="114" width="12" height="2"/><rect x="438" y="114" width="15" height="2"/><rect x="459" y="114" width="16" height="2"/><rect x="486" y="114" width="15" height="2"/><rect x="513" y="114" width="14" height="2"/><rect x="546" y="114" width="13" height="2"/><rect x="563" y="114" width="20" height="2"/><rect x="605" y="114" width="23" height="2"/><rect x="635" y="114" width="16" height="2"/><rect x="308" y="116" width="13" height="2"/><rect x="329" y="116" width="12" height="2"/><rect x="355" y="116" width="16" height="2"/><rect x="422" y="116" width="30" height="2"/><rect x="458" y="116" width="15" height="2"/><rect x="486" y="116" width="14" height="2"/><rect x="513" y="116" width="13" height="2"/><rect x="545" y="116" width="13" height="2"/><rect x="563" y="116" width="18" height="2"/><rect x="604" y="116" width="45" height="2"/><rect x="307" y="118" width="13" height="2"/><rect x="328" y="118" width="12" height="2"/><rect x="352" y="118" width="21" height="2"/><rect x="421" y="118" width="30" height="2"/><rect x="456" y="118" width="16" height="2"/><rect x="485" y="118" width="14" height="2"/><rect x="512" y="118" width="14" height="2"/><rect x="544" y="118" width="14" height="2"/><rect x="563" y="118" width="18" height="2"/><rect x="602" y="118" width="45" height="2"/><rect x="306" y="120" width="13" height="2"/><rect x="328" y="120" width="11" height="2"/><rect x="349" y="120" width="26" height="2"/><rect x="421" y="120" width="28" height="2"/><rect x="455" y="120" width="15" height="2"/><rect x="485" y="120" width="14" height="2"/><rect x="511" y="120" width="14" height="2"/><rect x="543" y="120" width="14" height="2"/><rect x="563" y="120" width="18" height="2"/><rect x="599" y="120" width="46" height="2"/><rect x="92" y="122" width="16" height="2"/><rect x="305" y="122" width="13" height="2"/><rect x="327" y="122" width="11" height="2"/><rect x="347" y="122" width="29" height="2"/><rect x="420" y="122" width="28" height="2"/><rect x="454" y="122" width="14" height="2"/><rect x="484" y="122" width="14" height="2"/><rect x="510" y="122" width="14" height="2"/><rect x="542" y="122" width="15" height="2"/><rect x="564" y="122" width="18" height="2"/><rect x="597" y="122" width="46" height="2"/><rect x="73" y="124" width="7" height="2"/><rect x="89" y="124" width="24" height="2"/><rect x="304" y="124" width="13" height="2"/><rect x="326" y="124" width="12" height="2"/><rect x="345" y="124" width="32" height="2"/><rect x="419" y="124" width="28" height="2"/><rect x="453" y="124" width="14" height="2"/><rect x="483" y="124" width="14" height="2"/><rect x="509" y="124" width="14" height="2"/><rect x="541" y="124" width="15" height="2"/><rect x="565" y="124" width="19" height="2"/><rect x="593" y="124" width="17" height="2"/><rect x="614" y="124" width="26" height="2"/><rect x="68" y="126" width="14" height="2"/><rect x="86" y="126" width="30" height="2"/><rect x="304" y="126" width="13" height="2"/><rect x="325" y="126" width="12" height="2"/><rect x="344" y="126" width="34" height="2"/><rect x="418" y="126" width="27" height="2"/><rect x="452" y="126" width="14" height="2"/><rect x="483" y="126" width="13" height="2"/><rect x="509" y="126" width="14" height="2"/><rect x="540" y="126" width="15" height="2"/><rect x="565" y="126" width="43" height="2"/><rect x="615" y="126" width="22" height="2"/><rect x="65" y="128" width="54" height="2"/><rect x="303" y="128" width="13" height="2"/><rect x="324" y="128" width="12" height="2"/><rect x="342" y="128" width="20" height="2"/><rect x="363" y="128" width="15" height="2"/><rect x="418" y="128" width="25" height="2"/><rect x="451" y="128" width="13" height="2"/><rect x="482" y="128" width="14" height="2"/><rect x="508" y="128" width="15" height="2"/><rect x="539" y="128" width="15" height="2"/><rect x="566" y="128" width="40" height="2"/><rect x="617" y="128" width="16" height="2"/><rect x="64" y="130" width="57" height="2"/><rect x="302" y="130" width="13" height="2"/><rect x="322" y="130" width="13" height="2"/><rect x="341" y="130" width="18" height="2"/><rect x="365" y="130" width="14" height="2"/><rect x="417" y="130" width="25" height="2"/><rect x="450" y="130" width="13" height="2"/><rect x="481" y="130" width="14" height="2"/><rect x="507" y="130" width="15" height="2"/><rect x="537" y="130" width="16" height="2"/><rect x="567" y="130" width="37" height="2"/><rect x="621" y="130" width="7" height="2"/><rect x="64" y="132" width="58" height="2"/><rect x="301" y="132" width="13" height="2"/><rect x="321" y="132" width="12" height="2"/><rect x="340" y="132" width="17" height="2"/><rect x="365" y="132" width="14" height="2"/><rect x="416" y="132" width="24" height="2"/><rect x="449" y="132" width="13" height="2"/><rect x="480" y="132" width="14" height="2"/><rect x="506" y="132" width="17" height="2"/><rect x="535" y="132" width="17" height="2"/><rect x="569" y="132" width="32" height="2"/><rect x="66" y="134" width="58" height="2"/><rect x="301" y="134" width="13" height="2"/><rect x="320" y="134" width="12" height="2"/><rect x="339" y="134" width="17" height="2"/><rect x="365" y="134" width="14" height="2"/><rect x="415" y="134" width="23" height="2"/><rect x="449" y="134" width="13" height="2"/><rect x="479" y="134" width="15" height="2"/><rect x="506" y="134" width="18" height="2"/><rect x="533" y="134" width="18" height="2"/><rect x="571" y="134" width="28" height="2"/><rect x="69" y="136" width="56" height="2"/><rect x="242" y="136" width="6" height="2"/><rect x="300" y="136" width="14" height="2"/><rect x="318" y="136" width="13" height="2"/><rect x="338" y="136" width="16" height="2"/><rect x="364" y="136" width="15" height="2"/><rect x="414" y="136" width="21" height="2"/><rect x="448" y="136" width="13" height="2"/><rect x="478" y="136" width="15" height="2"/><rect x="505" y="136" width="45" height="2"/><rect x="575" y="136" width="20" height="2"/><rect x="71" y="138" width="55" height="2"/><rect x="241" y="138" width="9" height="2"/><rect x="299" y="138" width="31" height="2"/><rect x="337" y="138" width="16" height="2"/><rect x="363" y="138" width="15" height="2"/><rect x="412" y="138" width="21" height="2"/><rect x="447" y="138" width="13" height="2"/><rect x="477" y="138" width="16" height="2"/><rect x="504" y="138" width="45" height="2"/><rect x="72" y="140" width="30" height="2"/><rect x="107" y="140" width="19" height="2"/><rect x="240" y="140" width="11" height="2"/><rect x="259" y="140" width="16" height="2"/><rect x="299" y="140" width="29" height="2"/><rect x="336" y="140" width="16" height="2"/><rect x="363" y="140" width="15" height="2"/><rect x="411" y="140" width="21" height="2"/><rect x="447" y="140" width="13" height="2"/><rect x="475" y="140" width="18" height="2"/><rect x="503" y="140" width="44" height="2"/><rect x="73" y="142" width="26" height="2"/><rect x="110" y="142" width="17" height="2"/><rect x="239" y="142" width="13" height="2"/><rect x="257" y="142" width="21" height="2"/><rect x="298" y="142" width="29" height="2"/><rect x="335" y="142" width="16" height="2"/><rect x="362" y="142" width="15" height="2"/><rect x="409" y="142" width="22" height="2"/><rect x="446" y="142" width="14" height="2"/><rect x="474" y="142" width="19" height="2"/><rect x="501" y="142" width="44" height="2"/><rect x="73" y="144" width="24" height="2"/><rect x="110" y="144" width="17" height="2"/><rect x="238" y="144" width="15" height="2"/><rect x="255" y="144" width="25" height="2"/><rect x="297" y="144" width="29" height="2"/><rect x="334" y="144" width="16" height="2"/><rect x="361" y="144" width="16" height="2"/><rect x="407" y="144" width="23" height="2"/><rect x="446" y="144" width="15" height="2"/><rect x="472" y="144" width="22" height="2"/><rect x="500" y="144" width="43" height="2"/><rect x="73" y="146" width="22" height="2"/><rect x="111" y="146" width="16" height="2"/><rect x="238" y="146" width="44" height="2"/><rect x="297" y="146" width="27" height="2"/><rect x="334" y="146" width="15" height="2"/><rect x="359" y="146" width="17" height="2"/><rect x="405" y="146" width="24" height="2"/><rect x="445" y="146" width="16" height="2"/><rect x="470" y="146" width="70" height="2"/><rect x="73" y="148" width="21" height="2"/><rect x="111" y="148" width="16" height="2"/><rect x="237" y="148" width="46" height="2"/><rect x="296" y="148" width="26" height="2"/><rect x="333" y="148" width="16" height="2"/><rect x="357" y="148" width="18" height="2"/><rect x="402" y="148" width="26" height="2"/><rect x="444" y="148" width="20" height="2"/><rect x="467" y="148" width="52" height="2"/><rect x="524" y="148" width="13" height="2"/><rect x="73" y="150" width="19" height="2"/><rect x="111" y="150" width="16" height="2"/><rect x="188" y="150" width="8" height="2"/><rect x="210" y="150" width="10" height="2"/><rect x="237" y="150" width="46" height="2"/><rect x="295" y="150" width="26" height="2"/><rect x="332" y="150" width="17" height="2"/><rect x="354" y="150" width="20" height="2"/><rect x="378" y="150" width="6" height="2"/><rect x="399" y="150" width="29" height="2"/><rect x="443" y="150" width="74" height="2"/><rect x="73" y="152" width="18" height="2"/><rect x="111" y="152" width="16" height="2"/><rect x="186" y="152" width="12" height="2"/><rect x="207" y="152" width="15" height="2"/><rect x="236" y="152" width="48" height="2"/><rect x="295" y="152" width="24" height="2"/><rect x="331" y="152" width="41" height="2"/><rect x="377" y="152" width="8" height="2"/><rect x="397" y="152" width="30" height="2"/><rect x="442" y="152" width="63" height="2"/><rect x="508" y="152" width="8" height="2"/><rect x="72" y="154" width="18" height="2"/><rect x="110" y="154" width="17" height="2"/><rect x="184" y="154" width="14" height="2"/><rect x="205" y="154" width="18" height="2"/><rect x="236" y="154" width="26" height="2"/><rect x="269" y="154" width="15" height="2"/><rect x="294" y="154" width="24" height="2"/><rect x="331" y="154" width="40" height="2"/><rect x="376" y="154" width="9" height="2"/><rect x="396" y="154" width="31" height="2"/><rect x="440" y="154" width="61" height="2"/><rect x="509" y="154" width="6" height="2"/><rect x="72" y="156" width="17" height="2"/><rect x="110" y="156" width="16" height="2"/><rect x="182" y="156" width="16" height="2"/><rect x="203" y="156" width="20" height="2"/><rect x="235" y="156" width="25" height="2"/><rect x="270" y="156" width="14" height="2"/><rect x="294" y="156" width="22" height="2"/><rect x="330" y="156" width="39" height="2"/><rect x="375" y="156" width="10" height="2"/><rect x="396" y="156" width="31" height="2"/><rect x="438" y="156" width="39" height="2"/><rect x="482" y="156" width="15" height="2"/><rect x="71" y="158" width="18" height="2"/><rect x="109" y="158" width="17" height="2"/><rect x="165" y="158" width="4" height="2"/><rect x="181" y="158" width="42" height="2"/><rect x="235" y="158" width="23" height="2"/><rect x="270" y="158" width="14" height="2"/><rect x="293" y="158" width="21" height="2"/><rect x="330" y="158" width="37" height="2"/><rect x="373" y="158" width="12" height="2"/><rect x="398" y="158" width="5" height="2"/><rect x="410" y="158" width="18" height="2"/><rect x="436" y="158" width="38" height="2"/><rect x="71" y="160" width="17" height="2"/><rect x="109" y="160" width="17" height="2"/><rect x="162" y="160" width="10" height="2"/><rect x="180" y="160" width="43" height="2"/><rect x="234" y="160" width="23" height="2"/><rect x="270" y="160" width="14" height="2"/><rect x="292" y="160" width="21" height="2"/><rect x="329" y="160" width="35" height="2"/><rect x="372" y="160" width="13" height="2"/><rect x="411" y="160" width="18" height="2"/><rect x="432" y="160" width="39" height="2"/><rect x="70" y="162" width="17" height="2"/><rect x="108" y="162" width="21" height="2"/><rect x="160" y="162" width="13" height="2"/><rect x="179" y="162" width="44" height="2"/><rect x="234" y="162" width="21" height="2"/><rect x="270" y="162" width="14" height="2"/><rect x="292" y="162" width="19" height="2"/><rect x="328" y="162" width="31" height="2"/><rect x="370" y="162" width="14" height="2"/><rect x="411" y="162" width="38" height="2"/><rect x="452" y="162" width="15" height="2"/><rect x="70" y="164" width="16" height="2"/><rect x="108" y="164" width="27" height="2"/><rect x="159" y="164" width="14" height="2"/><rect x="178" y="164" width="44" height="2"/><rect x="234" y="164" width="20" height="2"/><rect x="269" y="164" width="15" height="2"/><rect x="291" y="164" width="19" height="2"/><rect x="328" y="164" width="20" height="2"/><rect x="369" y="164" width="15" height="2"/><rect x="412" y="164" width="34" height="2"/><rect x="456" y="164" width="4" height="2"/><rect x="69" y="166" width="17" height="2"/><rect x="107" y="166" width="31" height="2"/><rect x="159" y="166" width="14" height="2"/><rect x="178" y="166" width="44" height="2"/><rect x="233" y="166" width="20" height="2"/><rect x="269" y="166" width="14" height="2"/><rect x="291" y="166" width="17" height="2"/><rect x="327" y="166" width="20" height="2"/><rect x="367" y="166" width="16" height="2"/><rect x="412" y="166" width="32" height="2"/><rect x="69" y="168" width="16" height="2"/><rect x="106" y="168" width="33" height="2"/><rect x="158" y="168" width="15" height="2"/><rect x="178" y="168" width="43" height="2"/><rect x="232" y="168" width="20" height="2"/><rect x="268" y="168" width="15" height="2"/><rect x="290" y="168" width="16" height="2"/><rect x="327" y="168" width="20" height="2"/><rect x="365" y="168" width="17" height="2"/><rect x="413" y="168" width="29" height="2"/><rect x="68" y="170" width="16" height="2"/><rect x="106" y="170" width="34" height="2"/><rect x="157" y="170" width="16" height="2"/><rect x="179" y="170" width="41" height="2"/><rect x="232" y="170" width="19" height="2"/><rect x="268" y="170" width="15" height="2"/><rect x="289" y="170" width="16" height="2"/><rect x="326" y="170" width="21" height="2"/><rect x="364" y="170" width="17" height="2"/><rect x="415" y="170" width="24" height="2"/><rect x="68" y="172" width="16" height="2"/><rect x="105" y="172" width="35" height="2"/><rect x="157" y="172" width="15" height="2"/><rect x="179" y="172" width="40" height="2"/><rect x="231" y="172" width="19" height="2"/><rect x="267" y="172" width="15" height="2"/><rect x="289" y="172" width="15" height="2"/><rect x="325" y="172" width="22" height="2"/><rect x="362" y="172" width="17" height="2"/><rect x="417" y="172" width="18" height="2"/><rect x="67" y="174" width="16" height="2"/><rect x="105" y="174" width="35" height="2"/><rect x="156" y="174" width="15" height="2"/><rect x="181" y="174" width="15" height="2"/><rect x="202" y="174" width="16" height="2"/><rect x="231" y="174" width="18" height="2"/><rect x="267" y="174" width="15" height="2"/><rect x="288" y="174" width="16" height="2"/><rect x="324" y="174" width="23" height="2"/><rect x="359" y="174" width="19" height="2"/><rect x="423" y="174" width="5" height="2"/><rect x="66" y="176" width="16" height="2"/><rect x="104" y="176" width="18" height="2"/><rect x="123" y="176" width="17" height="2"/><rect x="155" y="176" width="16" height="2"/><rect x="182" y="176" width="12" height="2"/><rect x="201" y="176" width="16" height="2"/><rect x="230" y="176" width="19" height="2"/><rect x="266" y="176" width="15" height="2"/><rect x="287" y="176" width="17" height="2"/><rect x="323" y="176" width="26" height="2"/><rect x="355" y="176" width="21" height="2"/><rect x="66" y="178" width="16" height="2"/><rect x="103" y="178" width="17" height="2"/><rect x="124" y="178" width="16" height="2"/><rect x="155" y="178" width="15" height="2"/><rect x="182" y="178" width="12" height="2"/><rect x="200" y="178" width="16" height="2"/><rect x="229" y="178" width="19" height="2"/><rect x="266" y="178" width="15" height="2"/><rect x="286" y="178" width="18" height="2"/><rect x="322" y="178" width="53" height="2"/><rect x="65" y="180" width="16" height="2"/><rect x="103" y="180" width="16" height="2"/><rect x="125" y="180" width="15" height="2"/><rect x="154" y="180" width="16" height="2"/><rect x="182" y="180" width="11" height="2"/><rect x="199" y="180" width="17" height="2"/><rect x="228" y="180" width="19" height="2"/><rect x="265" y="180" width="15" height="2"/><rect x="284" y="180" width="20" height="2"/><rect x="320" y="180" width="53" height="2"/><rect x="65" y="182" width="16" height="2"/><rect x="102" y="182" width="17" height="2"/><rect x="124" y="182" width="16" height="2"/><rect x="154" y="182" width="15" height="2"/><rect x="181" y="182" width="11" height="2"/><rect x="199" y="182" width="16" height="2"/><rect x="228" y="182" width="19" height="2"/><rect x="264" y="182" width="40" height="2"/><rect x="318" y="182" width="53" height="2"/><rect x="64" y="184" width="17" height="2"/><rect x="101" y="184" width="17" height="2"/><rect x="124" y="184" width="15" height="2"/><rect x="153" y="184" width="15" height="2"/><rect x="181" y="184" width="10" height="2"/><rect x="198" y="184" width="16" height="2"/><rect x="227" y="184" width="19" height="2"/><rect x="263" y="184" width="42" height="2"/><rect x="315" y="184" width="53" height="2"/><rect x="602" y="184" width="2" height="2"/><rect x="63" y="186" width="18" height="2"/><rect x="100" y="186" width="17" height="2"/><rect x="123" y="186" width="16" height="2"/><rect x="152" y="186" width="16" height="2"/><rect x="180" y="186" width="11" height="2"/><rect x="197" y="186" width="16" height="2"/><rect x="226" y="186" width="20" height="2"/><rect x="262" y="186" width="66" height="2"/><rect x="334" y="186" width="32" height="2"/><rect x="601" y="186" width="5" height="2"/><rect x="63" y="188" width="18" height="2"/><rect x="99" y="188" width="17" height="2"/><rect x="123" y="188" width="15" height="2"/><rect x="152" y="188" width="15" height="2"/><rect x="180" y="188" width="10" height="2"/><rect x="197" y="188" width="16" height="2"/><rect x="225" y="188" width="21" height="2"/><rect x="261" y="188" width="64" height="2"/><rect x="337" y="188" width="26" height="2"/><rect x="601" y="188" width="6" height="2"/><rect x="62" y="190" width="20" height="2"/><rect x="98" y="190" width="17" height="2"/><rect x="122" y="190" width="16" height="2"/><rect x="151" y="190" width="16" height="2"/><rect x="179" y="190" width="10" height="2"/><rect x="196" y="190" width="16" height="2"/><rect x="224" y="190" width="22" height="2"/><rect x="260" y="190" width="63" height="2"/><rect x="340" y="190" width="19" height="2"/><rect x="500" y="190" width="14" height="2"/><rect x="531" y="190" width="3" height="2"/><rect x="600" y="190" width="7" height="2"/><rect x="62" y="192" width="21" height="2"/><rect x="96" y="192" width="18" height="2"/><rect x="122" y="192" width="15" height="2"/><rect x="150" y="192" width="16" height="2"/><rect x="178" y="192" width="10" height="2"/><rect x="196" y="192" width="15" height="2"/><rect x="223" y="192" width="24" height="2"/><rect x="258" y="192" width="30" height="2"/><rect x="292" y="192" width="28" height="2"/><rect x="347" y="192" width="5" height="2"/><rect x="497" y="192" width="19" height="2"/><rect x="529" y="192" width="6" height="2"/><rect x="599" y="192" width="9" height="2"/><rect x="61" y="194" width="23" height="2"/><rect x="94" y="194" width="19" height="2"/><rect x="121" y="194" width="15" height="2"/><rect x="150" y="194" width="16" height="2"/><rect x="178" y="194" width="10" height="2"/><rect x="196" y="194" width="14" height="2"/><rect x="222" y="194" width="28" height="2"/><rect x="255" y="194" width="30" height="2"/><rect x="293" y="194" width="24" height="2"/><rect x="496" y="194" width="22" height="2"/><rect x="528" y="194" width="7" height="2"/><rect x="598" y="194" width="9" height="2"/><rect x="61" y="196" width="51" height="2"/><rect x="121" y="196" width="15" height="2"/><rect x="149" y="196" width="16" height="2"/><rect x="177" y="196" width="10" height="2"/><rect x="196" y="196" width="14" height="2"/><rect x="221" y="196" width="61" height="2"/><rect x="296" y="196" width="18" height="2"/><rect x="495" y="196" width="24" height="2"/><rect x="527" y="196" width="9" height="2"/><rect x="597" y="196" width="9" height="2"/><rect x="611" y="196" width="7" height="2"/><rect x="60" y="198" width="51" height="2"/><rect x="120" y="198" width="15" height="2"/><rect x="148" y="198" width="16" height="2"/><rect x="176" y="198" width="10" height="2"/><rect x="196" y="198" width="13" height="2"/><rect x="220" y="198" width="56" height="2"/><rect x="301" y="198" width="8" height="2"/><rect x="494" y="198" width="11" height="2"/><rect x="509" y="198" width="10" height="2"/><rect x="526" y="198" width="10" height="2"/><rect x="596" y="198" width="9" height="2"/><rect x="610" y="198" width="9" height="2"/><rect x="59" y="200" width="50" height="2"/><rect x="120" y="200" width="15" height="2"/><rect x="148" y="200" width="16" height="2"/><rect x="175" y="200" width="11" height="2"/><rect x="196" y="200" width="13" height="2"/><rect x="219" y="200" width="55" height="2"/><rect x="493" y="200" width="10" height="2"/><rect x="511" y="200" width="7" height="2"/><rect x="525" y="200" width="11" height="2"/><rect x="594" y="200" width="10" height="2"/><rect x="609" y="200" width="10" height="2"/><rect x="59" y="202" width="49" height="2"/><rect x="119" y="202" width="15" height="2"/><rect x="147" y="202" width="16" height="2"/><rect x="174" y="202" width="11" height="2"/><rect x="196" y="202" width="13" height="2"/><rect x="217" y="202" width="56" height="2"/><rect x="493" y="202" width="9" height="2"/><rect x="511" y="202" width="24" height="2"/><rect x="593" y="202" width="10" height="2"/><rect x="610" y="202" width="8" height="2"/><rect x="58" y="204" width="49" height="2"/><rect x="119" y="204" width="14" height="2"/><rect x="146" y="204" width="17" height="2"/><rect x="173" y="204" width="11" height="2"/><rect x="196" y="204" width="14" height="2"/><rect x="215" y="204" width="56" height="2"/><rect x="493" y="204" width="9" height="2"/><rect x="510" y="204" width="28" height="2"/><rect x="540" y="204" width="5" height="2"/><rect x="557" y="204" width="5" height="2"/><rect x="580" y="204" width="6" height="2"/><rect x="592" y="204" width="10" height="2"/><rect x="612" y="204" width="4" height="2"/><rect x="57" y="206" width="48" height="2"/><rect x="118" y="206" width="15" height="2"/><rect x="146" y="206" width="16" height="2"/><rect x="172" y="206" width="11" height="2"/><rect x="196" y="206" width="72" height="2"/><rect x="493" y="206" width="9" height="2"/><rect x="509" y="206" width="30" height="2"/><rect x="540" y="206" width="6" height="2"/><rect x="557" y="206" width="6" height="2"/><rect x="576" y="206" width="25" height="2"/><rect x="606" y="206" width="6" height="2"/><rect x="624" y="206" width="13" height="2"/><rect x="57" y="208" width="16" height="2"/><rect x="75" y="208" width="28" height="2"/><rect x="117" y="208" width="15" height="2"/><rect x="145" y="208" width="16" height="2"/><rect x="171" y="208" width="11" height="2"/><rect x="196" y="208" width="40" height="2"/><rect x="241" y="208" width="24" height="2"/><rect x="494" y="208" width="9" height="2"/><rect x="508" y="208" width="6" height="2"/><rect x="520" y="208" width="11" height="2"/><rect x="539" y="208" width="7" height="2"/><rect x="556" y="208" width="7" height="2"/><rect x="574" y="208" width="26" height="2"/><rect x="605" y="208" width="8" height="2"/><rect x="621" y="208" width="18" height="2"/><rect x="56" y="210" width="16" height="2"/><rect x="78" y="210" width="22" height="2"/><rect x="117" y="210" width="15" height="2"/><rect x="144" y="210" width="17" height="2"/><rect x="170" y="210" width="11" height="2"/><rect x="197" y="210" width="38" height="2"/><rect x="243" y="210" width="18" height="2"/><rect x="495" y="210" width="9" height="2"/><rect x="507" y="210" width="6" height="2"/><rect x="519" y="210" width="10" height="2"/><rect x="538" y="210" width="8" height="2"/><rect x="555" y="210" width="8" height="2"/><rect x="572" y="210" width="26" height="2"/><rect x="605" y="210" width="8" height="2"/><rect x="619" y="210" width="22" height="2"/><rect x="55" y="212" width="16" height="2"/><rect x="80" y="212" width="16" height="2"/><rect x="116" y="212" width="15" height="2"/><rect x="143" y="212" width="18" height="2"/><rect x="168" y="212" width="13" height="2"/><rect x="197" y="212" width="38" height="2"/><rect x="246" y="212" width="8" height="2"/><rect x="496" y="212" width="9" height="2"/><rect x="518" y="212" width="10" height="2"/><rect x="536" y="212" width="9" height="2"/><rect x="554" y="212" width="9" height="2"/><rect x="570" y="212" width="27" height="2"/><rect x="604" y="212" width="9" height="2"/><rect x="618" y="212" width="15" height="2"/><rect x="635" y="212" width="6" height="2"/><rect x="55" y="214" width="15" height="2"/><rect x="116" y="214" width="15" height="2"/><rect x="141" y="214" width="21" height="2"/><rect x="166" y="214" width="14" height="2"/><rect x="199" y="214" width="35" height="2"/><rect x="497" y="214" width="10" height="2"/><rect x="517" y="214" width="10" height="2"/><rect x="535" y="214" width="9" height="2"/><rect x="553" y="214" width="10" height="2"/><rect x="569" y="214" width="11" height="2"/><rect x="585" y="214" width="11" height="2"/><rect x="603" y="214" width="9" height="2"/><rect x="617" y="214" width="17" height="2"/><rect x="635" y="214" width="7" height="2"/><rect x="54" y="216" width="16" height="2"/><rect x="115" y="216" width="17" height="2"/><rect x="140" y="216" width="38" height="2"/><rect x="201" y="216" width="33" height="2"/><rect x="482" y="216" width="5" height="2"/><rect x="499" y="216" width="9" height="2"/><rect x="517" y="216" width="9" height="2"/><rect x="534" y="216" width="9" height="2"/><rect x="552" y="216" width="10" height="2"/><rect x="567" y="216" width="11" height="2"/><rect x="585" y="216" width="10" height="2"/><rect x="601" y="216" width="10" height="2"/><rect x="616" y="216" width="10" height="2"/><rect x="629" y="216" width="13" height="2"/><rect x="645" y="216" width="4" height="2"/><rect x="53" y="218" width="16" height="2"/><rect x="115" y="218" width="18" height="2"/><rect x="138" y="218" width="39" height="2"/><rect x="205" y="218" width="28" height="2"/><rect x="480" y="218" width="7" height="2"/><rect x="500" y="218" width="9" height="2"/><rect x="516" y="218" width="8" height="2"/><rect x="533" y="218" width="9" height="2"/><rect x="551" y="218" width="10" height="2"/><rect x="566" y="218" width="10" height="2"/><rect x="584" y="218" width="10" height="2"/><rect x="600" y="218" width="10" height="2"/><rect x="615" y="218" width="10" height="2"/><rect x="631" y="218" width="18" height="2"/><rect x="52" y="220" width="17" height="2"/><rect x="114" y="220" width="62" height="2"/><rect x="214" y="220" width="18" height="2"/><rect x="479" y="220" width="7" height="2"/><rect x="501" y="220" width="9" height="2"/><rect x="515" y="220" width="8" height="2"/><rect x="531" y="220" width="10" height="2"/><rect x="550" y="220" width="10" height="2"/><rect x="565" y="220" width="10" height="2"/><rect x="583" y="220" width="10" height="2"/><rect x="599" y="220" width="10" height="2"/><rect x="614" y="220" width="10" height="2"/><rect x="632" y="220" width="16" height="2"/><rect x="52" y="222" width="16" height="2"/><rect x="114" y="222" width="60" height="2"/><rect x="214" y="222" width="18" height="2"/><rect x="478" y="222" width="6" height="2"/><rect x="502" y="222" width="8" height="2"/><rect x="514" y="222" width="8" height="2"/><rect x="530" y="222" width="10" height="2"/><rect x="548" y="222" width="11" height="2"/><rect x="565" y="222" width="9" height="2"/><rect x="582" y="222" width="9" height="2"/><rect x="598" y="222" width="10" height="2"/><rect x="614" y="222" width="9" height="2"/><rect x="632" y="222" width="13" height="2"/><rect x="51" y="224" width="17" height="2"/><rect x="114" y="224" width="59" height="2"/><rect x="214" y="224" width="17" height="2"/><rect x="477" y="224" width="6" height="2"/><rect x="502" y="224" width="9" height="2"/><rect x="513" y="224" width="8" height="2"/><rect x="530" y="224" width="9" height="2"/><rect x="547" y="224" width="11" height="2"/><rect x="564" y="224" width="9" height="2"/><rect x="581" y="224" width="9" height="2"/><rect x="597" y="224" width="10" height="2"/><rect x="613" y="224" width="10" height="2"/><rect x="631" y="224" width="10" height="2"/><rect x="50" y="226" width="17" height="2"/><rect x="114" y="226" width="33" height="2"/><rect x="149" y="226" width="21" height="2"/><rect x="213" y="226" width="17" height="2"/><rect x="477" y="226" width="7" height="2"/><rect x="502" y="226" width="8" height="2"/><rect x="513" y="226" width="8" height="2"/><rect x="529" y="226" width="9" height="2"/><rect x="546" y="226" width="10" height="2"/><rect x="563" y="226" width="9" height="2"/><rect x="580" y="226" width="9" height="2"/><rect x="595" y="226" width="11" height="2"/><rect x="613" y="226" width="9" height="2"/><rect x="630" y="226" width="9" height="2"/><rect x="49" y="228" width="17" height="2"/><rect x="114" y="228" width="30" height="2"/><rect x="154" y="228" width="11" height="2"/><rect x="212" y="228" width="17" height="2"/><rect x="477" y="228" width="8" height="2"/><rect x="501" y="228" width="9" height="2"/><rect x="512" y="228" width="8" height="2"/><rect x="528" y="228" width="9" height="2"/><rect x="544" y="228" width="11" height="2"/><rect x="562" y="228" width="9" height="2"/><rect x="578" y="228" width="10" height="2"/><rect x="594" y="228" width="11" height="2"/><rect x="611" y="228" width="11" height="2"/><rect x="628" y="228" width="10" height="2"/><rect x="47" y="230" width="19" height="2"/><rect x="115" y="230" width="27" height="2"/><rect x="210" y="230" width="18" height="2"/><rect x="478" y="230" width="10" height="2"/><rect x="499" y="230" width="10" height="2"/><rect x="511" y="230" width="9" height="2"/><rect x="528" y="230" width="9" height="2"/><rect x="542" y="230" width="12" height="2"/><rect x="560" y="230" width="11" height="2"/><rect x="576" y="230" width="12" height="2"/><rect x="593" y="230" width="11" height="2"/><rect x="609" y="230" width="12" height="2"/><rect x="626" y="230" width="11" height="2"/><rect x="46" y="232" width="19" height="2"/><rect x="116" y="232" width="24" height="2"/><rect x="209" y="232" width="18" height="2"/><rect x="479" y="232" width="29" height="2"/><rect x="511" y="232" width="10" height="2"/><rect x="527" y="232" width="28" height="2"/><rect x="558" y="232" width="13" height="2"/><rect x="574" y="232" width="15" height="2"/><rect x="591" y="232" width="13" height="2"/><rect x="607" y="232" width="15" height="2"/><rect x="623" y="232" width="13" height="2"/><rect x="44" y="234" width="20" height="2"/><rect x="118" y="234" width="18" height="2"/><rect x="208" y="234" width="18" height="2"/><rect x="481" y="234" width="26" height="2"/><rect x="512" y="234" width="102" height="2"/><rect x="615" y="234" width="19" height="2"/><rect x="41" y="236" width="22" height="2"/><rect x="123" y="236" width="6" height="2"/><rect x="209" y="236" width="15" height="2"/><rect x="484" y="236" width="20" height="2"/><rect x="513" y="236" width="29" height="2"/><rect x="547" y="236" width="14" height="2"/><rect x="564" y="236" width="13" height="2"/><rect x="580" y="236" width="31" height="2"/><rect x="618" y="236" width="14" height="2"/><rect x="36" y="238" width="27" height="2"/><rect x="488" y="238" width="12" height="2"/><rect x="516" y="238" width="11" height="2"/><rect x="553" y="238" width="1" height="2"/><rect x="585" y="238" width="7" height="2"/><rect x="601" y="238" width="6" height="2"/><rect x="33" y="240" width="29" height="2"/><rect x="32" y="242" width="29" height="2"/><rect x="31" y="244" width="28" height="2"/><rect x="32" y="246" width="26" height="2"/><rect x="33" y="248" width="23" height="2"/><rect x="36" y="250" width="17" height="2"/>
</g>
</svg>